<svg xmlns="http://www.w3.org/2000/svg" width="25.988" height="25.1" viewBox="0 0 25.988 25.1">
    <g>
        <path fill="#2130b1" d="M45.907 32.738l-3.206-9.1a.794.794 0 0 0-.78-.5h-2.9l-.26-2.339a.888.888 0 0 0-.91-.794.888.888 0 0 0-.91.794l-.26 2.339H24.072a.964.964 0 0 0-.78.5c0 .042 0 .042-.043.084 0 .042 0 .042-.043.084L20 32.9v.251a.931.931 0 0 0 .823.961h2.426v9.4A1.617 1.617 0 0 0 24.9 45.1h16.241a1.617 1.617 0 0 0 1.646-1.587v-9.4h2.339a.965.965 0 0 0 .781-1.375zm-4.766 10.775H24.9v-9.4h16.241zm0-10.984h-13.17l-2.771-7.81h11.306l-.26 2.339 3.033-1.8-.043-.543H41.4l2.729 7.81z" transform="translate(-20 -20)"/>
    </g>
</svg>
