<svg xmlns="http://www.w3.org/2000/svg" id="AI_user" width="27.934" height="24.25" viewBox="0 0 27.934 24.25">
    <defs>
        <style>
            .cls-1{fill:#2130b1}
        </style>
    </defs>
    <path id="Path_326" d="M40.118 32.9a5.132 5.132 0 0 0 5.118-5.16v-2.58A5.132 5.132 0 0 0 40.118 20 5.132 5.132 0 0 0 35 25.16v2.58a5.132 5.132 0 0 0 5.118 5.16zM36.3 25.16a3.984 3.984 0 0 1 1.126-2.752 3.8 3.8 0 0 1 2.73-1.135 3.86 3.86 0 0 1 3.856 3.887v2.58a3.984 3.984 0 0 1-1.126 2.752 3.8 3.8 0 0 1-2.73 1.135 3.86 3.86 0 0 1-3.856-3.888z" class="cls-1" transform="translate(-26.129 -20)"/>
    <path id="Path_327" d="M37.459 61v5.4L30.243 61C22.654 62.033 20 66.022 20 66.022v2.112a1.776 1.776 0 0 0 1.769 1.783h24.955a1.238 1.238 0 0 0 1.21-1.22v-2.628s-2.7-4.083-10.475-5.069z" class="cls-1" transform="translate(-20 -45.667)"/>
</svg>
