<svg xmlns="http://www.w3.org/2000/svg" width="27" height="21.856" viewBox="0 0 27 21.856">
    <path fill="#2130b1" d="M13.034.775H26v4.066H13.034z"/>
    <path fill="#2130b1" fill-rule="evenodd" d="M42.36 28H30.869v-2.314L29.4 24.144H18.48L17 25.686V44.36A1.622 1.622 0 0 0 18.64 46h23.72A1.622 1.622 0 0 0 44 44.36V29.64A1.622 1.622 0 0 0 42.36 28zm.12 16.36a.172.172 0 0 1-.16.16H18.64a.172.172 0 0 1-.16-.16V25.686h10.89v3.794h12.99a.172.172 0 0 1 .16.16v14.72z" transform="translate(-17 -24.144)"/>
</svg>
