<svg xmlns="http://www.w3.org/2000/svg" width="132.676" height="129.552" viewBox="0 0 132.676 129.552">
    <defs>
        <style>
            .cls-1{fill:#fff}
        </style>
    </defs>
    <g id="like" transform="translate(-26)">
        <g id="Group_76" transform="translate(63.495)">
            <g id="Group_75">
                <path id="Path_4294" d="M338.884 0a2.725 2.725 0 0 1 2.884 2.53v11.64a2.909 2.909 0 0 1-5.769 0V2.53A2.725 2.725 0 0 1 338.884 0z" class="cls-1" transform="translate(-336)"/>
            </g>
        </g>
        <g id="Group_78" transform="translate(129.834 78.946)">
            <g id="Group_77">
                <path id="Path_4295" d="M108.884 312a2.552 2.552 0 1 1-2.884 2.53 2.726 2.726 0 0 1 2.884-2.53z" class="cls-1" transform="translate(-106 -312)"/>
            </g>
        </g>
        <g id="Group_80" transform="translate(26 26.821)">
            <g id="Group_79">
                <path id="Path_4296" d="M26 153.064c0-5.581 5.176-10.121 11.537-10.121h21.532a56.52 56.52 0 0 1-4.422-24.155 25.333 25.333 0 0 1 .2-2.909C55 110.411 60.116 106 66.38 106c6.362 0 11.537 4.54 11.537 10.121v2.53c0 16 23.424 24.995 41.1 28.85a8.774 8.774 0 0 1 7.931-4.559h28.843a2.725 2.725 0 0 1 2.884 2.53V206.2a2.725 2.725 0 0 1-2.884 2.53h-28.842a8.784 8.784 0 0 1-7.9-4.506q-2.2.494-4.077.928c-10.07 2.307-15.618 3.578-29.109 3.578h-31.02c-6.362 0-11.537-4.54-11.537-10.121a9.215 9.215 0 0 1 1.953-5.627c-4.456-1.367-7.721-5.1-7.721-9.555a9.268 9.268 0 0 1 1.931-5.633c-4.436-1.369-7.7-5.1-7.7-9.549a9.215 9.215 0 0 1 1.953-5.627c-4.456-1.366-7.722-5.101-7.722-9.554zm98.065 48.076a2.728 2.728 0 0 0 2.884 2.53h25.958V148h-25.958a2.728 2.728 0 0 0-2.884 2.53zm-86.528-43.015h14.421a2.552 2.552 0 1 1 0 5.061h-8.652c-3.181 0-5.769 2.27-5.769 5.061s2.583 5.061 5.769 5.061h14.421a2.552 2.552 0 1 1 0 5.061h-8.653c-3.143 0-5.769 2.2-5.769 5.061 0 2.795 2.583 5.061 5.769 5.061H63.5a2.552 2.552 0 1 1 0 5.061h-8.657c-3.181 0-5.769 2.27-5.769 5.061s2.588 5.061 5.769 5.061H85.86c12.75 0 17.73-1.141 27.651-3.414q2.18-.5 4.785-1.087v-46.609c-20.873-4.362-46.148-15.008-46.148-33.913v-2.53c0-2.79-2.588-5.061-5.769-5.061s-5.762 2.267-5.769 5.053v.008c0 1.1-1.564 14.6 4.709 26.821h9.712a2.552 2.552 0 1 1 0 5.061h-37.5c-3.181 0-5.769 2.27-5.769 5.061s2.589 5.061 5.775 5.061z" class="cls-1" transform="translate(-26 -106)"/>
            </g>
        </g>
        <g id="Group_82" transform="translate(129.834 89.067)">
            <g id="Group_81">
                <path id="Path_4297" d="M108.884 352a2.725 2.725 0 0 1 2.884 2.53v20.243a2.909 2.909 0 0 1-5.769 0V354.53a2.725 2.725 0 0 1 2.885-2.53z" class="cls-1" transform="translate(-106 -352)"/>
            </g>
        </g>
        <g id="Group_84" transform="translate(86.57 31.882)">
            <g id="Group_83">
                <path id="Path_4298" d="M218.884 126h11.537a2.552 2.552 0 1 1 0 5.061h-11.537a2.552 2.552 0 1 1 0-5.061z" class="cls-1" transform="translate(-216 -126)"/>
            </g>
        </g>
        <g id="Group_86" transform="translate(28.884 31.882)">
            <g id="Group_85">
                <path id="Path_4299" d="M418.884 126h11.537a2.552 2.552 0 1 1 0 5.061h-11.537a2.552 2.552 0 1 1 0-5.061z" class="cls-1" transform="translate(-416 -126)"/>
            </g>
        </g>
        <g id="Group_88" transform="translate(39.023 10.413)">
            <g id="Group_87">
                <path id="Path_4300" d="M393.415 41.892a3.178 3.178 0 0 1 4.079 0l8.156 7.155a2.317 2.317 0 0 1 0 3.579 3.178 3.178 0 0 1-4.079 0l-8.156-7.155a2.317 2.317 0 0 1 0-3.579z" class="cls-1" transform="translate(-392.57 -41.151)"/>
            </g>
        </g>
        <g id="Group_90" transform="translate(79.812 10.413)">
            <g id="Group_89">
                <path id="Path_4301" d="M251.995 49.047l8.156-7.155a3.178 3.178 0 0 1 4.079 0 2.317 2.317 0 0 1 0 3.579l-8.156 7.155a3.178 3.178 0 0 1-4.079 0 2.317 2.317 0 0 1 0-3.579z" class="cls-1" transform="translate(-251.15 -41.151)"/>
            </g>
        </g>
    </g>
</svg>
